<svg height="24" viewBox="0 0 24 24" width="24" xmlns="http://www.w3.org/2000/svg">
    <defs>
        <style>.a{fill:none;}.b{fill:#fff;}</style>
    </defs>
    <rect class="a" height="24" width="24" />
    <g transform="translate(2.984 2.494)">
        <path class="b"
            d="M19.712,23.3a1.047,1.047,0,0,0-1.346-.1.947.947,0,0,0-.1,1.5l2.294,2.294H7a1,1,0,0,0,0,1.994H20.559l-2.294,2.294a.947.947,0,0,0,.1,1.5,1.047,1.047,0,0,0,1.346-.1l3.939-3.989a.947.947,0,0,0,0-1.4Z"
            transform="translate(-5.992 -14.026)" />
        <path class="b"
            d="M10.23,14.673a1.047,1.047,0,0,0,1.346.1.947.947,0,0,0,.1-1.5L9.383,10.984H22.945a1,1,0,1,0,0-1.994H9.383L11.676,6.7a.947.947,0,0,0-.1-1.5,1.047,1.047,0,0,0-1.346.1L6.291,9.288a.947.947,0,0,0,0,1.4Z"
            transform="translate(-5.985 -5.001)" />
    </g>
</svg>