<svg xmlns="http://www.w3.org/2000/svg" width="19" height="19" viewBox="0 0 19 19"><defs><style>.a{opacity:0.8;}.a,.c{isolation:isolate;}.b{fill:none;}.d{fill:rgba(0,0,0,0.82);}</style></defs><g class="a"><rect class="b" width="19" height="19"/><g class="c" transform="translate(2.347 0.782)"><path class="d" d="M19.3,19.426H6.782A.782.782,0,0,1,6,18.643V3.782A.782.782,0,0,1,6.782,3h3.911a.782.782,0,0,1,.782.782h0a.782.782,0,0,1-.782.782H7.564v13.3h10.95V14.42a.782.782,0,0,1,.782-.782h0a.782.782,0,0,1,.782.782v4.224A.782.782,0,0,1,19.3,19.426Z" transform="translate(-6 -2.609)"/><path class="d" d="M21.431,2a5.123,5.123,0,0,0-5.084,4.693H14.782A.821.821,0,0,0,14,7.475a.782.782,0,0,0,.782.782h1.682a6.961,6.961,0,0,0,.665,1.564H14.782A.821.821,0,0,0,14,10.6a.782.782,0,0,0,.782.782h3.95a4.967,4.967,0,0,0,2.7.782A5.084,5.084,0,0,0,21.431,2Zm0,8.6a3.52,3.52,0,1,1,3.52-3.52A3.52,3.52,0,0,1,21.431,10.6Z" transform="translate(-10.871 -2)"/><rect class="d" width="9" height="3" rx="1" transform="translate(2.653 10.218)"/><path class="d" d="M31.693,13.782a.821.821,0,0,1-.782.782H27.782A.782.782,0,0,1,27,13.782.821.821,0,0,1,27.782,13h3.129A.782.782,0,0,1,31.693,13.782Z" transform="translate(-18.787 -8.698)"/></g></g></svg>