<svg xmlns="http://www.w3.org/2000/svg" width="21.471" height="21.438" viewBox="0 0 21.471 21.438"><defs><style>.a{fill:#fb0000;}</style></defs><path class="a" d="M10.167,6.042l1.973.6a.352.352,0,0,1,.241.339.344.344,0,0,1-.332.352H10.755a.966.966,0,0,1-.407-.092.468.468,0,0,0-.557.084L9.1,8.056a.522.522,0,0,0,.059.77,2.781,2.781,0,0,0,1.255.482v.741a.653.653,0,0,0,.632.67h.632a.653.653,0,0,0,.632-.67V9.312a2.33,2.33,0,0,0,1.946-2.638,2.411,2.411,0,0,0-1.693-2l-1.973-.6a.352.352,0,0,1-.241-.339.344.344,0,0,1,.332-.352h1.295a.966.966,0,0,1,.407.092.468.468,0,0,0,.557-.084l.691-.733a.522.522,0,0,0-.059-.77,2.781,2.781,0,0,0-1.255-.482V.67A.653.653,0,0,0,11.683,0h-.632a.653.653,0,0,0-.632.67v.737A2.33,2.33,0,0,0,8.474,4.045,2.411,2.411,0,0,0,10.167,6.042Zm10.905,7.7a1.135,1.135,0,0,0-1.591,0L16.04,16.832a2.219,2.219,0,0,1-1.492.586H10.14a.675.675,0,0,1,0-1.34h2.917A1.277,1.277,0,0,0,14.3,14.964,1.3,1.3,0,0,0,13.119,13.4H7.156A4.082,4.082,0,0,0,4.4,14.5L2.664,16.078H.6a.638.638,0,0,0-.6.67v4.02a.638.638,0,0,0,.6.67h13.3a2.234,2.234,0,0,0,1.492-.586l5.636-5.066a1.449,1.449,0,0,0,.051-2.047Z"/></svg>