<svg xmlns="http://www.w3.org/2000/svg" width="34" height="34" viewBox="0 0 34 34"><defs><style>.a,.d{fill:none;}.a{stroke:#ff9b9b;stroke-width:2px;}.b{fill:#ff9b9b;}.c{stroke:none;}</style></defs><g transform="translate(-37 -221)"><g class="a" transform="translate(37 221)"><circle class="c" cx="17" cy="17" r="17"/><circle class="d" cx="17" cy="17" r="16"/></g><path class="b" d="M7.19,13.172l1.043-1.043a1.114,1.114,0,0,0,.3.061A1.219,1.219,0,1,0,7.312,10.97a1.114,1.114,0,0,0,.061.3L6.329,12.311,1.881,7.863a.6.6,0,0,0-.952.114A7.818,7.818,0,0,0,11.516,18.564a.6.6,0,0,0,.114-.952ZM7.959,0a.613.613,0,0,0-.647.609v1.2a.6.6,0,0,0,.571.605,9.78,9.78,0,0,1,9.174,9.2.608.608,0,0,0,.605.571h1.222a.613.613,0,0,0,.609-.647A12.215,12.215,0,0,0,7.959,0ZM7.97,3.655a.614.614,0,0,0-.659.613V5.491a.607.607,0,0,0,.564.605,6.082,6.082,0,0,1,5.518,5.529.612.612,0,0,0,.605.56h1.226a.617.617,0,0,0,.613-.659A8.568,8.568,0,0,0,7.97,3.655Z" transform="translate(44 230.002)"/></g></svg>