<svg xmlns="http://www.w3.org/2000/svg" width="14.87" height="16.994" viewBox="0 0 14.87 16.994"><defs><style>.a{fill:#ff4c4c;}</style></defs><path class="a" d="M0,15.4a1.594,1.594,0,0,0,1.593,1.593H13.277A1.594,1.594,0,0,0,14.87,15.4V6.373H0ZM10.621,8.9a.4.4,0,0,1,.4-.4h1.328a.4.4,0,0,1,.4.4v1.328a.4.4,0,0,1-.4.4H11.02a.4.4,0,0,1-.4-.4Zm0,4.249a.4.4,0,0,1,.4-.4h1.328a.4.4,0,0,1,.4.4v1.328a.4.4,0,0,1-.4.4H11.02a.4.4,0,0,1-.4-.4ZM6.373,8.9a.4.4,0,0,1,.4-.4H8.1a.4.4,0,0,1,.4.4v1.328a.4.4,0,0,1-.4.4H6.771a.4.4,0,0,1-.4-.4Zm0,4.249a.4.4,0,0,1,.4-.4H8.1a.4.4,0,0,1,.4.4v1.328a.4.4,0,0,1-.4.4H6.771a.4.4,0,0,1-.4-.4ZM2.124,8.9a.4.4,0,0,1,.4-.4H3.85a.4.4,0,0,1,.4.4v1.328a.4.4,0,0,1-.4.4H2.523a.4.4,0,0,1-.4-.4Zm0,4.249a.4.4,0,0,1,.4-.4H3.85a.4.4,0,0,1,.4.4v1.328a.4.4,0,0,1-.4.4H2.523a.4.4,0,0,1-.4-.4ZM13.277,2.124H11.683V.531A.533.533,0,0,0,11.152,0H10.09a.533.533,0,0,0-.531.531V2.124H5.311V.531A.533.533,0,0,0,4.78,0H3.717a.533.533,0,0,0-.531.531V2.124H1.593A1.594,1.594,0,0,0,0,3.717V5.311H14.87V3.717A1.594,1.594,0,0,0,13.277,2.124Z"/></svg>