<svg xmlns="http://www.w3.org/2000/svg" width="34" height="34" viewBox="0 0 34 34"><defs><style>.a,.d{fill:none;}.a{stroke:#ff9b9b;stroke-width:2px;}.b{fill:#ff9b9b;}.c{stroke:none;}</style></defs><g transform="translate(-37 -305)"><g class="a" transform="translate(37 305)"><circle class="c" cx="17" cy="17" r="17"/><circle class="d" cx="17" cy="17" r="16"/></g><path class="b" d="M14.14,2.309V3.751c0,1.272-3.167,2.309-7.07,2.309S0,5.023,0,3.751V2.309C0,1.037,3.167,0,7.07,0S14.14,1.037,14.14,2.309Zm0,3.246V8.8c0,1.272-3.167,2.309-7.07,2.309S0,10.073,0,8.8V5.555C1.519,6.6,4.3,7.088,7.07,7.088S12.621,6.6,14.14,5.555Zm0,5.05v3.246c0,1.272-3.167,2.309-7.07,2.309S0,15.123,0,13.852V10.605c1.519,1.046,4.3,1.533,7.07,1.533S12.621,11.651,14.14,10.605Z" transform="translate(47 314)"/></g></svg>