<svg xmlns="http://www.w3.org/2000/svg" width="34" height="34" viewBox="0 0 34 34"><defs><style>.a,.d{fill:none;}.a{stroke:#ff9b9b;stroke-width:2px;}.b{fill:#ff9b9b;}.c{stroke:none;}</style></defs><g transform="translate(-37 -384)"><g class="a" transform="translate(37 384)"><circle class="c" cx="17" cy="17" r="17"/><circle class="d" cx="17" cy="17" r="16"/></g><g transform="translate(35.415 377.314)"><path class="b" d="M16.871,25.584l1.037-3.8H12.887a.3.3,0,0,1-.293-.368l1.744-8.494a.3.3,0,0,1,.293-.233H21.1a.3.3,0,0,1,.286.391L19.7,18.706h4.518a.3.3,0,0,1,.256.459l-4.037,6.42S21.291,24.642,16.871,25.584Z" transform="translate(0 0)"/><path class="b" d="M14.541,32.786a.3.3,0,0,0,.541.241L20.3,24.75H16.736Z" transform="translate(0.134 0.834)"/></g></g></svg>