<svg height="18.769" viewBox="0 0 18.769 18.769" width="18.769" xmlns="http://www.w3.org/2000/svg">
    <defs>
        <style>.a{fill:#fff;}</style>
    </defs>
    <path class="a"
        d="M19.892,3H4.877A1.874,1.874,0,0,0,3.009,4.877L3,21.769l3.754-3.754H19.892a1.882,1.882,0,0,0,1.877-1.877V4.877A1.882,1.882,0,0,0,19.892,3ZM6.754,14.261V11.943L13.21,5.487a.465.465,0,0,1,.666,0l1.661,1.661a.465.465,0,0,1,0,.666L9.072,14.261Zm11.261,0H10.977l1.877-1.877h5.161Z"
        transform="translate(-3 -3)" />
</svg>