<svg height="15.653" viewBox="0 0 20.125 15.653" width="20.125" xmlns="http://www.w3.org/2000/svg">
    <defs>
        <style>.a{fill:#fff;}</style>
    </defs>
    <path class="a"
        d="M0,16.226A1.678,1.678,0,0,0,1.677,17.9H18.448a1.678,1.678,0,0,0,1.677-1.677V10.076H0ZM6.708,13.85a.421.421,0,0,1,.419-.419h4.752a.421.421,0,0,1,.419.419v1.4a.421.421,0,0,1-.419.419H7.128a.421.421,0,0,1-.419-.419Zm-4.472,0a.421.421,0,0,1,.419-.419H5.171a.421.421,0,0,1,.419.419v1.4a.421.421,0,0,1-.419.419H2.655a.421.421,0,0,1-.419-.419ZM20.125,3.927V5.6H0V3.927A1.678,1.678,0,0,1,1.677,2.25H18.448A1.678,1.678,0,0,1,20.125,3.927Z"
        transform="translate(0 -2.25)" />
</svg>