<svg height="24" viewBox="0 0 24 24" width="24" xmlns="http://www.w3.org/2000/svg">
    <defs>
        <style>.a{fill:none;}.b{fill:#fff;}</style>
    </defs>
    <rect class="a" height="24" width="24" />
    <g transform="translate(0.985 0.985)">
        <path class="b"
            d="M20.569,8.194a.985.985,0,1,0-1.379,1.379,8.866,8.866,0,1,1-12.708,0A.985.985,0,0,0,5.1,8.194,10.639,10.639,0,0,0,2,15.779a10.836,10.836,0,0,0,21.672,0A10.639,10.639,0,0,0,20.569,8.194Z"
            transform="translate(-1.999 -4.943)" />
        <path class="b"
            d="M22.985,15.3a.985.985,0,0,0,.985-.985V2.985a.985.985,0,1,0-1.97,0V14.314A.985.985,0,0,0,22.985,15.3Z"
            transform="translate(-12.149 -2)" />
    </g>
</svg>