<svg xmlns="http://www.w3.org/2000/svg" width="16.911" height="18.625" viewBox="0 0 16.911 18.625"><defs><style>.a{fill:red;}</style></defs><path class="a" d="M18.323,7.172l-.847.847a3.883,3.883,0,0,1,0,5.5l.847.847a4.871,4.871,0,0,0,0-7.2ZM16.545,8.95,15.7,9.8a1.652,1.652,0,0,1,0,1.947l.847.847a2.555,2.555,0,0,0,0-3.64ZM13.159,1.5H4.693A1.7,1.7,0,0,0,3,3.193V18.432a1.7,1.7,0,0,0,1.693,1.693h8.466a1.7,1.7,0,0,0,1.693-1.693V3.193A1.7,1.7,0,0,0,13.159,1.5Zm0,16.085H4.693V4.04h8.466Z" transform="translate(-3 -1.5)"/></svg>