<svg xmlns="http://www.w3.org/2000/svg" xmlns:xlink="http://www.w3.org/1999/xlink" width="52" height="52" viewBox="0 0 52 52"><defs><style>.a,.d,.n{fill:#fff;}.a{stroke:#707070;}.b{clip-path:url(#a);}.c{fill:#dcf3f7;}.d{opacity:0.41;}.e{fill:#2a1d1e;}.f,.h{fill:#efa48e;}.g{fill:#e29179;}.h{opacity:0.63;}.i{fill:#423434;}.j,.k{opacity:0.32;}.k{fill:#c1272d;}.l{fill:#ce1d43;}.m{fill:#ef3a59;}.o{fill:#2c2c7a;}.p{fill:#f4b59f;}.q{fill:#fe5929;}.r{fill:#a4015e;}.s{fill:#8e0c5c;opacity:0.59;}.t{fill:#f2be3b;}</style><clipPath id="a"><circle class="a" cx="26" cy="26" r="26" transform="translate(165 69)"/></clipPath></defs><g class="b" transform="translate(-165 -69)"><g transform="translate(165 69)"><path class="c" d="M52,26a25.919,25.919,0,0,1-2.483,11.107c-.363.765-.763,1.511-1.193,2.232q-.474.787-1,1.54c-.243.355-.5.7-.765,1.044-.073.094-.143.185-.217.277s-.133.167-.2.248c-.167.209-.342.415-.517.616-.032.037-.063.07-.1.107-.016.021-.034.039-.052.06-.172.2-.353.392-.533.582-.073.081-.151.162-.227.24-.154.156-.311.313-.468.467-.039.042-.081.081-.123.12s-.089.088-.133.13c-.12.115-.243.23-.366.342-.036.034-.071.068-.107.1-.318.29-.642.575-.974.848-.024.016-.042.032-.065.05-.157.131-.313.256-.473.381-.021.016-.042.031-.06.047-.264.2-.527.4-.8.6-.574.413-1.169.8-1.778,1.167-.123.076-.246.149-.371.22-.1.06-.206.12-.311.177-.12.071-.245.138-.368.2-.07.036-.141.076-.211.112-.256.136-.517.266-.778.394-.024.01-.045.021-.065.032s-.029.013-.042.021q-.721.344-1.459.642c-.091.039-.183.073-.274.11-.018.008-.036.013-.055.021-.272.107-.551.209-.83.305-.126.047-.251.089-.376.13-.41.136-.825.264-1.243.379-.1.031-.211.058-.316.087-.013,0-.026.008-.039.01-.632.167-1.274.311-1.922.428H30.7c-.251.047-.5.089-.757.128l-.164.024c-.172.026-.345.049-.52.071-.418.052-.841.094-1.266.125-.175.013-.35.026-.525.036-.2.01-.41.018-.616.026-.078,0-.159.005-.243.005s-.164.005-.251.005a.387.387,0,0,1-.055,0c-.1,0-.2,0-.3,0h-.034c-.107,0-.217,0-.324,0-.125,0-.248-.005-.371-.01h-.01l-.319-.008-.052,0-.457-.024c-.211-.013-.42-.028-.629-.047s-.428-.036-.64-.06l-.026,0c-.1-.01-.193-.021-.29-.034-.2-.023-.4-.049-.6-.076,0,0,0,0-.006,0-.308-.047-.616-.1-.919-.154h-.01c-.136-.026-.274-.049-.408-.078-.245-.05-.491-.1-.736-.159-.423-.1-.846-.2-1.261-.324a25.678,25.678,0,0,1-4.17-1.577c-.008-.005-.018-.008-.026-.013-.123-.057-.243-.12-.365-.18-.386-.2-.768-.4-1.141-.611-.071-.039-.144-.081-.214-.123-.164-.094-.326-.191-.488-.287-.358-.217-.708-.444-1.055-.679-.044-.029-.089-.058-.133-.089-.282-.193-.562-.392-.835-.6h0c-.019-.016-.039-.029-.057-.044-.2-.149-.394-.3-.59-.457-.094-.073-.188-.149-.279-.224-.128-.1-.256-.211-.381-.318-.047-.036-.094-.078-.141-.12s-.084-.071-.123-.11q-.305-.263-.6-.533c-.164-.154-.323-.308-.483-.462q-.444-.431-.864-.885c-.191-.2-.379-.412-.561-.624-.029-.031-.055-.063-.081-.091-.261-.3-.512-.605-.757-.921-.167-.209-.329-.423-.486-.637-.06-.078-.117-.157-.172-.232a.238.238,0,0,1-.021-.031c-.431-.6-.838-1.211-1.214-1.846A26,26,0,1,1,52,26Z" transform="translate(0 0)"/><path class="d" d="M52,26a25.919,25.919,0,0,1-2.483,11.107c-.363.765-.763,1.511-1.193,2.232q-.474.787-1,1.54c-.243.355-.5.7-.765,1.044-.073.094-.143.185-.217.277s-.133.167-.2.248c-.167.209-.342.415-.517.616-.032.037-.063.07-.1.107-.016.021-.034.039-.052.06-.172.2-.353.392-.533.582-.073.081-.151.162-.227.24-.154.156-.311.313-.468.467-.039.042-.081.081-.123.12s-.089.088-.133.13c-.12.115-.243.23-.366.342-.036.034-.071.068-.107.1-.318.29-.642.575-.974.848-.024.016-.042.032-.065.05-.157.131-.313.256-.473.381-.021.016-.042.031-.06.047-.264.2-.527.4-.8.6-.574.413-1.169.8-1.778,1.167-.123.076-.246.149-.371.22-.1.06-.206.12-.311.177-.12.071-.245.138-.368.2-.07.036-.141.076-.211.112-.256.136-.517.266-.778.394-.024.01-.045.021-.065.032s-.029.013-.042.021q-.721.344-1.459.642c-.091.039-.183.073-.274.11-.018.008-.036.013-.055.021-.272.107-.551.209-.83.305-.126.047-.251.089-.376.13-.41.136-.825.264-1.243.379-.1.031-.211.058-.316.087-.013,0-.026.008-.039.01-.632.167-1.274.311-1.922.428H30.7c-.251.047-.5.089-.757.128l-.164.024c-.172.026-.345.049-.52.071-.418.052-.841.094-1.266.125-.175.013-.35.026-.525.036-.2.01-.41.018-.616.026-.078,0-.159.005-.243.005s-.164.005-.251.005a.387.387,0,0,1-.055,0c-.1,0-.2,0-.3,0h-.034c-.107,0-.217,0-.324,0-.125,0-.248-.005-.371-.01h-.01l-.319-.008-.052,0-.457-.024c-.211-.013-.42-.028-.629-.047s-.428-.036-.64-.06l-.026,0c-.1-.01-.193-.021-.29-.034-.2-.023-.4-.049-.6-.076,0,0,0,0-.006,0-.308-.047-.616-.1-.919-.154h-.01c-.136-.026-.274-.049-.408-.078-.245-.05-.491-.1-.736-.159-.423-.1-.846-.2-1.261-.324a25.678,25.678,0,0,1-4.17-1.577c-.008-.005-.018-.008-.026-.013-.123-.057-.243-.12-.365-.18-.386-.2-.768-.4-1.141-.611-.071-.039-.144-.081-.214-.123-.164-.094-.326-.191-.488-.287-.358-.217-.708-.444-1.055-.679-.044-.029-.089-.058-.133-.089-.282-.193-.562-.392-.835-.6h0c-.019-.016-.039-.029-.057-.044-.2-.149-.394-.3-.59-.457-.094-.073-.188-.149-.279-.224-.128-.1-.256-.211-.381-.318-.047-.036-.094-.078-.141-.12s-.084-.071-.123-.11q-.305-.263-.6-.533c-.164-.154-.323-.308-.483-.462q-.444-.431-.864-.885c-.191-.2-.379-.412-.561-.624-.029-.031-.055-.063-.081-.091-.261-.3-.512-.605-.757-.921-.167-.209-.329-.423-.486-.637-.06-.078-.117-.157-.172-.232a.238.238,0,0,1-.021-.031c-.431-.6-.838-1.211-1.214-1.846A26,26,0,1,1,52,26Z" transform="translate(0 0)"/><path class="e" d="M54.61,23.067c.062.791.45,6.754-3.394,10.317a10.676,10.676,0,0,1-7.5,2.534,10.038,10.038,0,0,1-4.925-1.026c-3.8-2.015-6.136-7.128-5.965-11.826.219-6.025,4.611-12.854,10.889-12.852C50.209,10.219,54.17,17.518,54.61,23.067Z" transform="translate(-15.406 -4.795)"/><path class="f" d="M54.445,61.29a7.242,7.242,0,0,1-14.476,0A6.053,6.053,0,0,1,40,60.611q1.45-.03,3.03-.048c.039-.1.069-.211.1-.315.007-.024.013-.047.019-.071l.011-.044a6.875,6.875,0,0,0-.007-3.361,7.123,7.123,0,0,0-.328-1.013v0h8.192v0c-.014.036-.029.077-.045.122a7.192,7.192,0,0,0-.3,1.108c-.005.026-.01.055-.016.083a7.418,7.418,0,0,0-.1,1.749,6.732,6.732,0,0,0,.319,1.678c1.239-.008,2.411-.01,3.525-.005a6.124,6.124,0,0,1,.045.795Z" transform="translate(-18.762 -26.173)"/><path class="g" d="M53.477,55.882a6.965,6.965,0,0,0-.3,1.088,9.354,9.354,0,0,1-1.906.722c-1.834.553-2.183.512-3.057.841a8.5,8.5,0,0,0-2.546,1.524l-.05.043a6.7,6.7,0,0,0,0-3.342,6.84,6.84,0,0,0-.325-.995v0h8.094v0C53.418,55.8,53.448,55.84,53.477,55.882Z" transform="translate(-21.263 -26.175)"/><path class="g" d="M37.169,23.736a9.32,9.32,0,0,1,16.485.622c3.11,6.494-3.468,16.318-8.727,16.178C39.609,40.395,33.582,30.012,37.169,23.736Z" transform="translate(-16.939 -8.949)"/><path class="h" d="M47.178,22.792c2.885-.215,5.741,2.063,6.9,4.455,2.748,5.678-2.3,14.967-7.337,15.046-2.943.046-5.549-2.936-6.55-5.464C37.907,31.058,42.168,23.166,47.178,22.792Z" transform="translate(-18.569 -10.692)"/><path class="i" d="M34.824,63.125c-.02.067-.043.133-.066.2-.013-.058-.025-.117-.036-.177C34.753,63.141,34.788,63.132,34.824,63.125Z" transform="translate(-16.299 -29.632)"/><path class="i" d="M34.824,63.125c-.02.067-.043.133-.066.2-.013-.058-.025-.117-.036-.177C34.753,63.141,34.788,63.132,34.824,63.125Z" transform="translate(-16.299 -29.632)"/><path class="e" d="M44.464,35.386c-.062-.08.223-.422.541-.63a2,2,0,0,1,.843-.3,2.059,2.059,0,0,1,.9.092c.348.119.759.374.718.474-.059.143-.879-.261-1.921-.012C44.916,35.157,44.531,35.472,44.464,35.386Z" transform="translate(-20.868 -16.165)"/><path class="e" d="M58.046,35.293c.065-.078-.209-.429-.518-.648a2,2,0,0,0-.832-.332,2.062,2.062,0,0,0-.908.062c-.352.108-.772.349-.734.45.054.145.888-.232,1.921.052C57.6,35.048,57.976,35.376,58.046,35.293Z" transform="translate(-25.842 -16.095)"/><g class="j" transform="translate(26.881 23.215)"><g class="j"><path class="k" d="M53.238,44.962a3.327,3.327,0,0,1-2.575.093,1.289,1.289,0,0,1,2.575-.093Z" transform="translate(-50.663 -43.754)"/></g></g><path class="l" d="M48.1,48.948a4.073,4.073,0,0,0,2.852,1.118,4.155,4.155,0,0,0,2.607-1.175,12.289,12.289,0,0,1-5.459.056Z" transform="translate(-22.578 -22.95)"/><path class="m" d="M48.1,48.932a4.286,4.286,0,0,0,2.555.969,4.334,4.334,0,0,0,2.9-1.008A2.857,2.857,0,0,1,52.4,50.238a3.067,3.067,0,0,1-1.746.42,2.934,2.934,0,0,1-1.41-.392A2.768,2.768,0,0,1,48.1,48.932Z" transform="translate(-22.578 -22.951)"/><path class="n" d="M57.667,38.612c-.164.034-.35.066-.558.09-.167.019-.348.033-.539.038-.086,0-.169,0-.25,0a6.31,6.31,0,0,1-.848-.066,1.051,1.051,0,0,1,1.07-1.152,1.068,1.068,0,0,1,1.125,1.088Z" transform="translate(-26.037 -17.613)"/><path class="e" d="M57.77,38.489a.546.546,0,0,1-.153.378c-.178.022-.372.038-.577.045-.092,0-.181,0-.267,0a.554.554,0,0,1-.2-.425.6.6,0,0,1,1.2,0Z" transform="translate(-26.555 -17.785)"/><path class="n" d="M57.49,38.693a.131.131,0,1,0-.148-.13A.14.14,0,0,0,57.49,38.693Z" transform="translate(-26.917 -18.041)"/><path class="n" d="M47.921,38.612c-.164.034-.351.066-.558.09-.167.019-.348.033-.539.038q-.128,0-.25,0a6.306,6.306,0,0,1-.848-.066,1.051,1.051,0,0,1,1.07-1.152,1.068,1.068,0,0,1,1.125,1.088Z" transform="translate(-21.462 -17.613)"/><path class="e" d="M48.022,38.489a.546.546,0,0,1-.153.378c-.179.022-.372.038-.577.045-.091,0-.181,0-.267,0a.554.554,0,0,1-.2-.425.6.6,0,0,1,1.2,0Z" transform="translate(-21.979 -17.785)"/><path class="n" d="M47.743,38.693a.131.131,0,1,0-.148-.13A.14.14,0,0,0,47.743,38.693Z" transform="translate(-22.342 -18.041)"/><path class="o" d="M45.787,76.153q-.205-.127-.4-.268C45.517,75.98,45.651,76.068,45.787,76.153Z" transform="translate(-21.305 -35.622)"/><path class="e" d="M40,16.767a9.7,9.7,0,0,0-6.389,3.5,9.089,9.089,0,0,0-1.436,7.718,10.2,10.2,0,0,0,3.174,5.162c-1.121.476-3.8,1.429-6.07.32-4.36-2.128-3.237-9.905-3.107-10.817C26.886,17.69,30.424,9.915,37.4,9.094c5.017-.591,8.8,2.772,9.465,3.388,4.818,4.46,5.265,12.1,2.193,16.677-2.285,3.408-6.271,4.76-6.4,4.583s3.059-1.537,4.237-4.675c1.27-3.382-.448-6.89-1.126-8.1-.056-.1-.108-.2-.192-.332A8.879,8.879,0,0,0,40,16.767Z" transform="translate(-12.181 -4.236)"/><path class="p" d="M85.653,80.823c-.016.021-.034.039-.052.06-.036-.222-.071-.444-.1-.669C85.554,80.414,85.606,80.617,85.653,80.823Z" transform="translate(-40.133 -37.654)"/><path class="f" d="M64.929,64.873l-.08,0c-.028,0-.062,0-.093,0h.172Z" transform="translate(-30.397 -30.45)"/><path class="q" d="M53.487,73.331c-.167.209-.342.415-.517.616-.031.037-.062.07-.1.107-.016.021-.034.039-.052.06-.172.2-.353.391-.533.582-.073.081-.152.162-.227.24-.154.157-.311.313-.468.468-.039.042-.081.081-.123.12s-.089.089-.133.13c-.12.115-.243.23-.366.342-.036.034-.071.068-.107.1-.319.29-.642.575-.974.849-.024.016-.042.031-.065.05-.157.13-.313.256-.473.381-.021.016-.042.031-.06.047-.264.2-.527.4-.8.6-.574.413-1.169.8-1.778,1.167-.123.075-.246.149-.371.219-.1.06-.206.12-.311.177-.12.071-.245.139-.368.2-.07.037-.141.076-.211.113-.256.136-.517.266-.778.394-.024.01-.045.021-.065.032s-.029.013-.042.021q-.721.344-1.459.642c-.091.039-.183.073-.274.11-.018.008-.036.013-.055.021-.272.107-.551.209-.83.305-.126.047-.251.089-.376.131-.41.136-.825.264-1.243.378-.1.032-.211.058-.316.087-.013,0-.026.008-.039.01-.632.167-1.274.311-1.922.429h-.005c-.251.047-.5.089-.757.128l-.164.024c-.172.026-.345.049-.52.07-.418.052-.841.094-1.266.126-.175.013-.35.026-.525.036-.2.01-.41.019-.616.026-.078,0-.159.005-.243.005s-.164,0-.251,0a.386.386,0,0,1-.055,0c-.1,0-.2,0-.3,0H33.32c-.107,0-.217,0-.324,0-.125,0-.248,0-.371-.01h-.01l-.319-.008c-.018,0-.034,0-.052,0l-.457-.023c-.211-.013-.42-.029-.629-.047s-.428-.036-.64-.06l-.026,0c-.1-.011-.193-.021-.29-.034-.2-.023-.4-.049-.6-.075,0,0,0,0-.006,0-.308-.047-.616-.1-.919-.154h-.01c-.136-.026-.274-.049-.408-.078-.245-.049-.491-.1-.736-.159-.423-.1-.846-.2-1.261-.324a25.76,25.76,0,0,1-4.17-1.577c-.008-.005-.018-.008-.026-.013-.123-.057-.243-.12-.366-.18-.386-.2-.768-.4-1.141-.611-.071-.039-.144-.081-.214-.123-.164-.094-.326-.19-.488-.287-.358-.216-.708-.444-1.055-.679-.044-.029-.089-.058-.133-.089-.282-.193-.562-.392-.835-.6h0c-.019-.016-.039-.028-.057-.044-.2-.149-.394-.3-.59-.457-.094-.073-.188-.149-.279-.224-.128-.1-.256-.211-.381-.318-.047-.036-.094-.078-.141-.12s-.084-.071-.123-.11q-.305-.263-.6-.533a23.2,23.2,0,0,1,3.1-5.65,23.865,23.865,0,0,1,1.976-2.313l0,0c.162-.167.329-.332.491-.491a12.124,12.124,0,0,1,3.916-1.486,8.655,8.655,0,0,0,.386,1.394v0a9.9,9.9,0,0,0,3.394,4.527,10.56,10.56,0,0,0,.9.6c1.018-.081,1.935-.131,2.906-.162a.459.459,0,0,0,.06,0c1.423-.042,2.974-.047,5.162-.055.331,0,.676,0,1.037-.008h0c.838,0,1.76-.008,2.794-.016.146-.1.295-.2.436-.308h0v0c.149-.107.29-.217.428-.334A10.009,10.009,0,0,0,44.87,69.1v0h0c.094-.154.185-.313.272-.473v0a9.3,9.3,0,0,0,.723-1.754v0c.055-.175.1-.355.141-.536s.078-.358.11-.54c.063.016.123.026.18.042a8.417,8.417,0,0,1,1.452.454,5.712,5.712,0,0,1,1.068.587l.013.008.018.013.015.01c.128.089.251.185.371.282,0,0,0,0,.01.005s.073.06.126.1a11.112,11.112,0,0,1,1.509,1.616A26.355,26.355,0,0,1,53.487,73.331Z" transform="translate(-7.353 -30.884)"/><path class="i" d="M37.337,63.38c-.017.063-.037.126-.056.188-.011-.056-.021-.111-.031-.169C37.276,63.395,37.306,63.387,37.337,63.38Z" transform="translate(-17.485 -29.751)"/><path class="i" d="M37.337,63.38c-.017.063-.037.126-.056.188-.011-.056-.021-.111-.031-.169C37.276,63.395,37.306,63.387,37.337,63.38Z" transform="translate(-17.485 -29.751)"/><path class="r" d="M32.57,64.531q1.148,1.832,2.362,3.691,1.706,2.611,3.416,5.073a1.788,1.788,0,0,0,2.993-.015l5.986-8.788a8.321,8.321,0,0,1,3.533.427,8.632,8.632,0,0,1,2.466,1.352c-.177.806-2.968,12.769-11.4,14.888a10.554,10.554,0,0,1-4.433.147c-8.533-1.547-12.059-13.211-12.3-14.039a10.167,10.167,0,0,1,3.6-2.206,9.676,9.676,0,0,1,3.772-.53Z" transform="translate(-11.829 -30.256)"/><path class="s" d="M32.383,68.672c1.894.155,2.382,2.943,5.065,6.547,1.518,2.039,2.888,3.828,4.932,4.057a5.124,5.124,0,0,0,3.466-1.068,6.5,6.5,0,0,1-3.8,2.7c-5.826,1.075-12.266-9.961-10.864-11.885C31.5,68.6,32.172,68.654,32.383,68.672Z" transform="translate(-14.547 -32.23)"/><path class="t" d="M67.169,67.776a.285.285,0,1,0-.267-.285A.276.276,0,0,0,67.169,67.776Z" transform="translate(-31.405 -31.548)"/><path class="t" d="M72.57,67.373a.285.285,0,1,0-.267-.285A.276.276,0,0,0,72.57,67.373Z" transform="translate(-33.94 -31.359)"/><path class="t" d="M67.546,72.336a.285.285,0,1,0-.267-.285A.276.276,0,0,0,67.546,72.336Z" transform="translate(-31.582 -33.688)"/><path class="t" d="M73.325,73.409a.285.285,0,1,0-.267-.285A.276.276,0,0,0,73.325,73.409Z" transform="translate(-34.295 -34.192)"/><path class="t" d="M60.26,76.9a.285.285,0,1,0-.267-.285A.276.276,0,0,0,60.26,76.9Z" transform="translate(-28.162 -35.829)"/><path class="t" d="M65.913,77.165a.285.285,0,1,0-.267-.285A.276.276,0,0,0,65.913,77.165Z" transform="translate(-30.816 -35.955)"/><path class="t" d="M71.817,77.165a.285.285,0,1,0-.267-.285A.276.276,0,0,0,71.817,77.165Z" transform="translate(-33.587 -35.955)"/><path class="t" d="M70.812,71.665a.285.285,0,1,0-.267-.285A.276.276,0,0,0,70.812,71.665Z" transform="translate(-33.115 -33.373)"/><path class="t" d="M57.873,81.054a.285.285,0,1,0-.267-.285A.276.276,0,0,0,57.873,81.054Z" transform="translate(-27.041 -37.781)"/><path class="t" d="M64.908,81.322a.285.285,0,1,0-.267-.285A.276.276,0,0,0,64.908,81.322Z" transform="translate(-30.344 -37.907)"/><path class="t" d="M60.512,87.895a.285.285,0,1,0-.267-.285A.276.276,0,0,0,60.512,87.895Z" transform="translate(-28.28 -40.992)"/><path class="t" d="M65.913,87.089a.285.285,0,1,0-.267-.285A.276.276,0,0,0,65.913,87.089Z" transform="translate(-30.816 -40.614)"/><path class="t" d="M53.728,84.675a.285.285,0,1,0-.267-.285A.276.276,0,0,0,53.728,84.675Z" transform="translate(-25.096 -39.481)"/><path class="t" d="M48.2,89.1a.285.285,0,1,0-.267-.285A.276.276,0,0,0,48.2,89.1Z" transform="translate(-22.501 -41.558)"/><path class="t" d="M58.125,92.186a.285.285,0,1,0-.267-.285A.276.276,0,0,0,58.125,92.186Z" transform="translate(-27.16 -43.006)"/><path class="t" d="M50.337,95.137a.285.285,0,1,0-.267-.285A.276.276,0,0,0,50.337,95.137Z" transform="translate(-23.504 -44.391)"/><path class="t" d="M53.477,89.906a.285.285,0,1,0-.267-.285A.276.276,0,0,0,53.477,89.906Z" transform="translate(-24.978 -41.936)"/><path class="t" d="M47.447,81.725a.285.285,0,1,0-.267-.285A.276.276,0,0,0,47.447,81.725Z" transform="translate(-22.147 -38.096)"/><path class="t" d="M40.664,81.725a.285.285,0,1,0-.267-.285A.276.276,0,0,0,40.664,81.725Z" transform="translate(-18.963 -38.096)"/><path class="t" d="M42.548,86.151a.285.285,0,1,0-.267-.285A.276.276,0,0,0,42.548,86.151Z" transform="translate(-19.848 -40.173)"/><path class="t" d="M38.905,88.565a.285.285,0,1,0-.267-.285A.276.276,0,0,0,38.905,88.565Z" transform="translate(-18.137 -41.306)"/><path class="t" d="M32.876,82.664a.285.285,0,1,0-.267-.285A.276.276,0,0,0,32.876,82.664Z" transform="translate(-15.307 -38.536)"/><path class="t" d="M35.89,79.042a.285.285,0,1,0-.267-.285A.276.276,0,0,0,35.89,79.042Z" transform="translate(-16.722 -36.836)"/><path class="t" d="M43.929,77.3a.285.285,0,1,0-.267-.285A.276.276,0,0,0,43.929,77.3Z" transform="translate(-20.496 -36.018)"/><path class="t" d="M38.026,70.324a.285.285,0,1,0-.267-.285A.276.276,0,0,0,38.026,70.324Z" transform="translate(-17.725 -32.744)"/><path class="t" d="M39.91,74.616a.285.285,0,1,0-.267-.285A.276.276,0,0,0,39.91,74.616Z" transform="translate(-18.609 -34.759)"/><path class="t" d="M33.127,72.872a.285.285,0,1,0-.267-.285A.276.276,0,0,0,33.127,72.872Z" transform="translate(-15.425 -33.94)"/><path class="t" d="M31.242,77.835a.285.285,0,1,0-.267-.285A.276.276,0,0,0,31.242,77.835Z" transform="translate(-14.541 -36.27)"/><path class="t" d="M35.388,66.569a.285.285,0,1,0-.267-.285A.276.276,0,0,0,35.388,66.569Z" transform="translate(-16.487 -30.981)"/><path class="t" d="M27.851,68.714a.285.285,0,1,0-.267-.285A.276.276,0,0,0,27.851,68.714Z" transform="translate(-12.949 -31.988)"/><path class="t" d="M28.1,73.007a.285.285,0,1,0-.267-.285A.276.276,0,0,0,28.1,73.007Z" transform="translate(-13.066 -34.003)"/><path class="t" d="M31.871,69.787A.285.285,0,1,0,31.6,69.5.276.276,0,0,0,31.871,69.787Z" transform="translate(-14.836 -32.492)"/></g></g></svg>