<svg height="24" viewBox="0 0 24 24" width="24" xmlns="http://www.w3.org/2000/svg">
    <defs>
        <style>.a{fill:none;}.b{fill:#fff;}</style>
    </defs>
    <rect class="a" height="24" width="24" />
    <g transform="translate(1.024 1.024)">
        <path class="b"
            d="M20.679,15.3l2.689-.733a11.246,11.246,0,0,0,0-3.618l-2.689-.733a.88.88,0,0,1-.538-1.271L21.51,6.5a10.073,10.073,0,0,0-2.494-2.494L16.572,5.374l-.391.1a.88.88,0,0,1-.88-.636l-.733-2.689a11.246,11.246,0,0,0-3.618,0l-.733,2.689a.88.88,0,0,1-.88.636l-.391-.1L6.5,4.005A10.073,10.073,0,0,0,4.005,6.5L5.374,8.944a.88.88,0,0,1-.538,1.271l-2.689.733a11.246,11.246,0,0,0,0,3.618l2.689.733a.88.88,0,0,1,.538,1.271L4.005,19.017A10.073,10.073,0,0,0,6.5,21.51l2.445-1.369.391-.1a.88.88,0,0,1,.88.636l.733,2.689a11.246,11.246,0,0,0,3.618,0l.733-2.689a.88.88,0,0,1,.88-.636l.391.1,2.445,1.369a10.073,10.073,0,0,0,2.494-2.494l-1.369-2.445a.88.88,0,0,1,.538-1.271Zm-.587-1.907h-.1a2.983,2.983,0,0,0-1.663,1.614,2.787,2.787,0,0,0,.049,2.347h.049v.1l.733,1.222a1.467,1.467,0,0,1-.391.391l-1.222-.733H17.4a2.64,2.64,0,0,0-1.222-.293,2.934,2.934,0,0,0-2.738,1.907v.147h0L13,21.559h-.489l-.391-1.418h0v-.1a2.934,2.934,0,0,0-2.787-1.956,2.64,2.64,0,0,0-1.222.293H7.966l-1.222.733a1.467,1.467,0,0,1-.391-.391L7.086,17.5v-.1h.049a2.787,2.787,0,0,0,.049-2.347,2.983,2.983,0,0,0-1.663-1.614H5.374L3.956,13v-.489l1.418-.391h.147a2.983,2.983,0,0,0,1.663-1.614,2.787,2.787,0,0,0-.049-2.347H7.086v-.1L6.352,6.841l.391-.391,1.222.733h.147a2.64,2.64,0,0,0,1.222.293A2.934,2.934,0,0,0,12.073,5.57V5.423h0l.44-1.467H13l.391,1.418h0v.1A2.934,2.934,0,0,0,16.18,7.428,2.64,2.64,0,0,0,17.4,7.134h.147L18.772,6.4a1.467,1.467,0,0,1,.391.391L18.43,8.015v.1h-.049a2.787,2.787,0,0,0-.049,2.347,2.983,2.983,0,0,0,1.663,1.614h.147l1.418.391v.489l-1.418.391Z"
            transform="translate(-2 -2)" />
        <path class="b"
            d="M19.605,15a4.605,4.605,0,1,0,4.605,4.605A4.605,4.605,0,0,0,19.605,15Zm0,7.164a2.559,2.559,0,1,1,2.559-2.559A2.559,2.559,0,0,1,19.605,22.164Z"
            transform="translate(-8.848 -8.848)" />
    </g>
</svg>