<svg xmlns="http://www.w3.org/2000/svg" width="53" height="53" viewBox="0 0 53 53"><defs><style>.a{fill:#dcf3f7;}.b,.l{fill:#fff;}.b{opacity:0.41;}.c{fill:#2a1d1e;}.d,.f{fill:#efa48e;}.e{fill:#e29179;}.f{opacity:0.63;}.g{fill:#423434;}.h,.i{opacity:0.32;}.i{fill:#c1272d;}.j{fill:#ce1d43;}.k{fill:#ef3a59;}.m{fill:#2c2c7a;}.n{fill:#f4b59f;}.o{fill:#fe5929;}.p{fill:#a4015e;}.q{fill:#8e0c5c;opacity:0.59;}.r{fill:#f2be3b;}</style></defs><path class="a" d="M53,26.5a26.419,26.419,0,0,1-2.531,11.321c-.37.779-.777,1.541-1.216,2.275q-.483.8-1.022,1.57c-.247.362-.508.716-.78,1.065-.075.1-.146.189-.221.282s-.136.17-.208.253c-.17.213-.348.423-.527.628-.032.038-.064.072-.1.109-.016.021-.034.04-.053.061-.175.2-.36.4-.543.593-.075.083-.154.165-.231.245-.157.159-.317.319-.477.476-.04.043-.082.083-.125.123s-.091.09-.136.133c-.122.117-.248.235-.373.348-.037.034-.072.069-.109.1-.325.3-.655.586-.993.865-.024.016-.043.032-.067.051-.16.133-.319.261-.482.389-.022.016-.043.032-.061.048-.269.208-.538.41-.812.607-.585.42-1.192.82-1.812,1.189-.125.077-.25.152-.378.224-.1.061-.21.122-.317.181-.122.072-.25.141-.375.208-.072.037-.144.078-.216.114-.261.139-.527.272-.793.4-.024.011-.046.021-.067.032s-.029.013-.043.021q-.734.351-1.488.655c-.093.04-.186.075-.28.112-.018.008-.037.014-.056.021-.277.109-.561.213-.846.311-.128.048-.255.091-.383.133-.418.139-.841.269-1.267.386-.106.032-.215.059-.322.088-.013,0-.027.008-.04.01-.644.17-1.3.317-1.959.436h-.006c-.256.048-.513.091-.772.13l-.168.024c-.176.027-.351.05-.53.072-.426.053-.857.1-1.291.128-.179.013-.357.026-.535.037-.207.011-.418.019-.628.027-.08,0-.162.005-.248.005s-.168.005-.255.005a.4.4,0,0,1-.056,0c-.1,0-.2,0-.309,0h-.035c-.109,0-.221,0-.33,0-.128,0-.253-.005-.378-.011h-.01l-.325-.008-.053,0-.466-.024c-.215-.013-.428-.029-.641-.048s-.437-.037-.652-.061l-.027,0c-.1-.011-.2-.021-.3-.034-.205-.024-.407-.05-.609-.077,0,0,0,0-.006,0-.314-.048-.628-.1-.936-.157h-.011c-.139-.027-.279-.05-.415-.08-.25-.051-.5-.1-.75-.163-.431-.1-.862-.207-1.285-.33a26.173,26.173,0,0,1-4.25-1.607c-.008-.005-.019-.008-.027-.013-.125-.058-.248-.122-.373-.183-.394-.2-.782-.4-1.163-.623-.072-.04-.147-.083-.218-.125-.168-.1-.333-.194-.5-.293-.365-.221-.721-.452-1.075-.692-.045-.03-.09-.059-.136-.091-.287-.2-.572-.4-.852-.61h0c-.019-.016-.04-.029-.059-.045-.2-.152-.4-.306-.6-.466-.1-.075-.191-.151-.284-.229-.13-.106-.261-.216-.389-.325-.048-.037-.1-.08-.144-.122s-.085-.072-.125-.112q-.311-.268-.609-.543c-.168-.157-.33-.314-.492-.471q-.452-.439-.881-.9c-.194-.207-.386-.42-.572-.636-.03-.032-.056-.064-.083-.093-.266-.306-.522-.617-.772-.939-.17-.213-.335-.431-.5-.65-.061-.08-.12-.16-.176-.237a.242.242,0,0,1-.021-.032c-.439-.607-.854-1.235-1.237-1.881A26.5,26.5,0,1,1,53,26.5Z"/><path class="b" d="M53,26.5a26.419,26.419,0,0,1-2.531,11.321c-.37.779-.777,1.541-1.216,2.275q-.483.8-1.022,1.57c-.247.362-.508.716-.78,1.065-.075.1-.146.189-.221.282s-.136.17-.208.253c-.17.213-.348.423-.527.628-.032.038-.064.072-.1.109-.016.021-.034.04-.053.061-.175.2-.36.4-.543.593-.075.083-.154.165-.231.245-.157.159-.317.319-.477.476-.04.043-.082.083-.125.123s-.091.09-.136.133c-.122.117-.248.235-.373.348-.037.034-.072.069-.109.1-.325.3-.655.586-.993.865-.024.016-.043.032-.067.051-.16.133-.319.261-.482.389-.022.016-.043.032-.061.048-.269.208-.538.41-.812.607-.585.42-1.192.82-1.812,1.189-.125.077-.25.152-.378.224-.1.061-.21.122-.317.181-.122.072-.25.141-.375.208-.072.037-.144.078-.216.114-.261.139-.527.272-.793.4-.024.011-.046.021-.067.032s-.029.013-.043.021q-.734.351-1.488.655c-.093.04-.186.075-.28.112-.018.008-.037.014-.056.021-.277.109-.561.213-.846.311-.128.048-.255.091-.383.133-.418.139-.841.269-1.267.386-.106.032-.215.059-.322.088-.013,0-.027.008-.04.01-.644.17-1.3.317-1.959.436h-.006c-.256.048-.513.091-.772.13l-.168.024c-.176.027-.351.05-.53.072-.426.053-.857.1-1.291.128-.179.013-.357.026-.535.037-.207.011-.418.019-.628.027-.08,0-.162.005-.248.005s-.168.005-.255.005a.4.4,0,0,1-.056,0c-.1,0-.2,0-.309,0h-.035c-.109,0-.221,0-.33,0-.128,0-.253-.005-.378-.011h-.01l-.325-.008-.053,0-.466-.024c-.215-.013-.428-.029-.641-.048s-.437-.037-.652-.061l-.027,0c-.1-.011-.2-.021-.3-.034-.205-.024-.407-.05-.609-.077,0,0,0,0-.006,0-.314-.048-.628-.1-.936-.157h-.011c-.139-.027-.279-.05-.415-.08-.25-.051-.5-.1-.75-.163-.431-.1-.862-.207-1.285-.33a26.173,26.173,0,0,1-4.25-1.607c-.008-.005-.019-.008-.027-.013-.125-.058-.248-.122-.373-.183-.394-.2-.782-.4-1.163-.623-.072-.04-.147-.083-.218-.125-.168-.1-.333-.194-.5-.293-.365-.221-.721-.452-1.075-.692-.045-.03-.09-.059-.136-.091-.287-.2-.572-.4-.852-.61h0c-.019-.016-.04-.029-.059-.045-.2-.152-.4-.306-.6-.466-.1-.075-.191-.151-.284-.229-.13-.106-.261-.216-.389-.325-.048-.037-.1-.08-.144-.122s-.085-.072-.125-.112q-.311-.268-.609-.543c-.168-.157-.33-.314-.492-.471q-.452-.439-.881-.9c-.194-.207-.386-.42-.572-.636-.03-.032-.056-.064-.083-.093-.266-.306-.522-.617-.772-.939-.17-.213-.335-.431-.5-.65-.061-.08-.12-.16-.176-.237a.242.242,0,0,1-.021-.032c-.439-.607-.854-1.235-1.237-1.881A26.5,26.5,0,1,1,53,26.5Z"/><path class="c" d="M39.959,18.624c.064.806.459,6.884-3.46,10.516a10.882,10.882,0,0,1-7.641,2.583,10.232,10.232,0,0,1-5.02-1.045c-3.876-2.053-6.254-7.265-6.08-12.054.224-6.141,4.7-13.1,11.1-13.1C35.474,5.529,39.511,12.968,39.959,18.624Z"/><path class="d" d="M36.371,35.794a7.381,7.381,0,0,1-14.755,0,6.17,6.17,0,0,1,.036-.692q1.478-.03,3.089-.049c.04-.106.07-.216.1-.321.007-.025.013-.048.019-.073l.012-.044a7.007,7.007,0,0,0-.007-3.426,7.26,7.26,0,0,0-.335-1.032v0h8.35v0c-.014.036-.03.079-.046.125a7.33,7.33,0,0,0-.306,1.129c-.005.027-.011.056-.016.085a7.56,7.56,0,0,0-.106,1.783,6.861,6.861,0,0,0,.325,1.71c1.263-.008,2.458-.011,3.593-.005a6.243,6.243,0,0,1,.046.81Z"/><path class="e" d="M32.834,30.28a7.1,7.1,0,0,0-.306,1.109,9.535,9.535,0,0,1-1.943.736c-1.869.564-2.225.522-3.116.857a8.668,8.668,0,0,0-2.595,1.553l-.051.044a6.828,6.828,0,0,0,0-3.406,6.971,6.971,0,0,0-.331-1.014v0h8.25v0C32.775,30.2,32.8,30.237,32.834,30.28Z"/><path class="e" d="M20.62,15.072a9.777,9.777,0,0,1,8.566-4.757,9.767,9.767,0,0,1,8.237,5.391c3.17,6.619-3.535,16.633-8.9,16.49C23.107,32.052,16.964,21.47,20.62,15.072Z"/><path class="f" d="M29.161,12.333c2.941-.219,5.852,2.1,7.032,4.541,2.8,5.787-2.34,15.255-7.478,15.336-3,.047-5.656-2.993-6.676-5.569C19.711,20.759,24.054,12.714,29.161,12.333Z"/><path class="g" d="M18.882,34.139c-.02.068-.044.136-.067.2-.013-.06-.025-.119-.037-.181C18.81,34.155,18.845,34.147,18.882,34.139Z"/><path class="g" d="M18.882,34.139c-.02.068-.044.136-.067.2-.013-.06-.025-.119-.037-.181C18.81,34.155,18.845,34.147,18.882,34.139Z"/><path class="c" d="M24.051,19.592c-.063-.082.227-.43.551-.642a2.041,2.041,0,0,1,.859-.31,2.1,2.1,0,0,1,.922.094c.354.122.774.382.732.483-.06.146-.9-.266-1.958-.013C24.511,19.358,24.119,19.679,24.051,19.592Z"/><path class="c" d="M32.824,19.567c.066-.08-.213-.438-.528-.661a2.034,2.034,0,0,0-.848-.338,2.1,2.1,0,0,0-.925.063c-.358.11-.787.356-.748.459.055.148.9-.236,1.958.053C32.373,19.318,32.754,19.653,32.824,19.567Z"/><g class="h"><g class="h"><path class="i" d="M30.024,24.894a3.392,3.392,0,0,1-2.625.1,1.314,1.314,0,0,1,2.625-.1Z"/></g></g><path class="j" d="M26.013,26.5a4.152,4.152,0,0,0,2.907,1.139,4.235,4.235,0,0,0,2.657-1.2,12.526,12.526,0,0,1-5.564.057Z"/><path class="k" d="M26.013,26.482a4.369,4.369,0,0,0,2.6.988,4.417,4.417,0,0,0,2.96-1.027,2.912,2.912,0,0,1-1.18,1.37,3.126,3.126,0,0,1-1.78.428,2.991,2.991,0,0,1-1.437-.4,2.821,2.821,0,0,1-1.167-1.36Z"/><path class="l" d="M32.24,21.4c-.167.035-.357.067-.569.091-.17.019-.354.033-.55.039-.087,0-.172,0-.254,0A6.431,6.431,0,0,1,30,21.468a1.072,1.072,0,0,1,1.091-1.174A1.089,1.089,0,0,1,32.24,21.4Z"/><path class="c" d="M31.817,21.1a.556.556,0,0,1-.156.385c-.182.022-.379.039-.588.046-.093,0-.184,0-.272,0a.565.565,0,0,1-.207-.433.612.612,0,0,1,1.224,0Z"/><path class="l" d="M31.162,21.05a.133.133,0,1,0-.151-.132A.143.143,0,0,0,31.162,21.05Z"/><path class="l" d="M26.969,21.4c-.167.035-.357.067-.569.091-.17.019-.354.033-.55.039q-.131,0-.254,0a6.428,6.428,0,0,1-.864-.067,1.072,1.072,0,0,1,1.091-1.174A1.089,1.089,0,0,1,26.969,21.4Z"/><path class="c" d="M26.545,21.1a.556.556,0,0,1-.156.385c-.182.022-.379.039-.588.046-.093,0-.184,0-.272,0a.565.565,0,0,1-.207-.433.612.612,0,0,1,1.224,0Z"/><path class="l" d="M25.891,21.05a.133.133,0,1,0-.151-.132A.143.143,0,0,0,25.891,21.05Z"/><path class="m" d="M24.954,41.313q-.209-.129-.408-.273C24.678,41.136,24.815,41.226,24.954,41.313Z"/><path class="c" d="M28.358,12.772a9.886,9.886,0,0,0-6.513,3.568,9.264,9.264,0,0,0-1.464,7.867,10.4,10.4,0,0,0,3.235,5.261c-1.143.485-3.871,1.456-6.187.326-4.444-2.169-3.3-10.1-3.167-11.025.725-5.056,4.331-12.981,11.44-13.818,5.114-.6,8.968,2.825,9.647,3.454,4.911,4.546,5.367,12.329,2.235,17-2.329,3.474-6.392,4.851-6.527,4.672s3.118-1.567,4.319-4.765c1.294-3.448-.457-7.023-1.148-8.257-.057-.1-.11-.2-.2-.339A9.05,9.05,0,0,0,28.358,12.772Z"/><path class="n" d="M46.4,44c-.016.021-.034.04-.053.061-.037-.226-.072-.452-.106-.682C46.3,43.585,46.349,43.791,46.4,44Z"/><path class="d" d="M35.2,35.087l-.082,0c-.028,0-.063,0-.094,0H35.2Z"/><path class="o" d="M47.023,43.266c-.17.213-.349.423-.527.628-.032.038-.064.072-.1.109-.016.021-.035.04-.053.061-.176.2-.36.4-.543.593-.075.083-.155.165-.231.245-.157.16-.317.319-.477.477-.04.042-.083.083-.125.122s-.091.091-.136.133c-.123.117-.248.235-.373.348-.037.035-.072.069-.109.1-.325.3-.655.586-.993.865-.024.016-.043.032-.067.051-.16.133-.319.261-.482.388-.022.016-.043.032-.061.048-.269.208-.538.41-.812.607-.585.421-1.192.82-1.812,1.19-.125.077-.25.151-.378.223-.1.061-.21.122-.317.181-.122.072-.25.141-.375.208-.072.038-.144.078-.216.115-.261.138-.527.271-.793.4-.024.011-.046.022-.067.032s-.029.013-.043.021q-.734.351-1.488.655c-.093.04-.186.075-.28.112-.018.008-.037.014-.056.022-.277.109-.561.213-.846.311-.128.048-.255.091-.383.133-.418.139-.841.269-1.267.386-.106.032-.215.059-.322.088-.013,0-.027.008-.04.01-.644.17-1.3.317-1.959.437h-.006c-.256.048-.513.091-.772.13l-.168.024c-.176.027-.351.05-.53.072-.426.053-.857.1-1.291.128-.179.013-.357.026-.535.037-.207.011-.418.019-.628.027-.08,0-.162.005-.248.005s-.168,0-.255,0a.4.4,0,0,1-.056,0c-.1,0-.2,0-.309,0h-.035c-.109,0-.221,0-.33,0-.128,0-.253,0-.378-.01h-.01l-.325-.008c-.018,0-.034,0-.053,0l-.466-.024c-.215-.014-.428-.029-.641-.048s-.437-.037-.652-.061l-.027,0c-.1-.011-.2-.022-.3-.035-.205-.023-.407-.05-.609-.077,0,0,0,0-.006,0-.314-.048-.628-.1-.936-.157h-.011c-.139-.026-.279-.05-.415-.08-.25-.05-.5-.1-.75-.162-.431-.1-.862-.208-1.285-.33a26.255,26.255,0,0,1-4.25-1.607c-.008-.005-.019-.008-.027-.014-.125-.058-.248-.122-.373-.183-.394-.2-.782-.4-1.163-.623-.072-.04-.147-.083-.218-.125-.168-.1-.333-.194-.5-.293-.365-.22-.721-.452-1.075-.692-.045-.03-.09-.059-.136-.091-.287-.2-.572-.4-.852-.61h0c-.019-.016-.04-.029-.059-.045-.2-.152-.4-.306-.6-.466-.1-.074-.191-.151-.285-.229-.13-.106-.261-.216-.389-.325-.048-.037-.1-.08-.144-.122s-.085-.072-.125-.112q-.311-.268-.609-.543a23.645,23.645,0,0,1,3.164-5.759A24.324,24.324,0,0,1,13.651,37.8l0,0c.165-.17.335-.338.5-.5a12.358,12.358,0,0,1,3.992-1.514,8.822,8.822,0,0,0,.394,1.421v0A10.092,10.092,0,0,0,22,41.825a10.764,10.764,0,0,0,.913.615c1.038-.083,1.972-.133,2.962-.165a.468.468,0,0,0,.061,0c1.451-.043,3.031-.048,5.261-.056.338,0,.689,0,1.057-.008h0c.854,0,1.794-.008,2.848-.016.149-.1.3-.2.444-.314h0v0c.152-.109.3-.221.437-.341a10.2,10.2,0,0,0,2.254-2.579v0h0c.1-.157.189-.319.277-.482v0a9.481,9.481,0,0,0,.737-1.788v0c.056-.179.1-.362.144-.546s.08-.365.112-.551c.064.016.125.027.183.043a8.579,8.579,0,0,1,1.48.463,5.822,5.822,0,0,1,1.088.6l.013.008.019.013.016.011c.131.09.256.189.378.287,0,0,0,0,.011.006s.075.061.128.106a11.326,11.326,0,0,1,1.538,1.647A26.863,26.863,0,0,1,47.023,43.266Z"/><path class="g" d="M20.234,34.277c-.017.064-.037.129-.058.192-.011-.057-.022-.114-.032-.172C20.172,34.292,20.2,34.284,20.234,34.277Z"/><path class="g" d="M20.234,34.277c-.017.064-.037.129-.058.192-.011-.057-.022-.114-.032-.172C20.172,34.292,20.2,34.284,20.234,34.277Z"/><path class="p" d="M21.141,34.936q1.17,1.867,2.408,3.763,1.739,2.661,3.481,5.171a1.823,1.823,0,0,0,3.05-.015l6.1-8.957a8.481,8.481,0,0,1,3.6.435A8.8,8.8,0,0,1,42.3,36.71c-.18.822-3.025,13.015-11.616,15.175a10.758,10.758,0,0,1-4.518.15c-8.7-1.577-12.292-13.466-12.534-14.309A10.363,10.363,0,0,1,17.3,35.476a9.862,9.862,0,0,1,3.844-.541Z"/><path class="q" d="M18.18,37.145c1.93.158,2.428,3,5.163,6.673,1.547,2.079,2.944,3.9,5.027,4.135A5.223,5.223,0,0,0,31.9,46.865a6.621,6.621,0,0,1-3.872,2.756c-5.939,1.1-12.5-10.153-11.074-12.114C17.276,37.07,17.965,37.127,18.18,37.145Z"/><path class="r" d="M36.454,36.926a.291.291,0,1,0-.272-.29A.281.281,0,0,0,36.454,36.926Z"/><path class="r" d="M39.375,36.709a.291.291,0,1,0-.272-.29A.281.281,0,0,0,39.375,36.709Z"/><path class="r" d="M36.657,39.393a.291.291,0,1,0-.272-.29A.281.281,0,0,0,36.657,39.393Z"/><path class="r" d="M39.783,39.973a.291.291,0,1,0-.272-.29A.281.281,0,0,0,39.783,39.973Z"/><path class="r" d="M32.717,41.859a.291.291,0,1,0-.272-.29A.281.281,0,0,0,32.717,41.859Z"/><path class="r" d="M35.775,42a.291.291,0,1,0-.272-.29A.281.281,0,0,0,35.775,42Z"/><path class="r" d="M38.968,42a.291.291,0,1,0-.272-.29A.281.281,0,0,0,38.968,42Z"/><path class="r" d="M38.424,39.03a.291.291,0,1,0-.272-.29A.281.281,0,0,0,38.424,39.03Z"/><path class="r" d="M31.426,44.108a.291.291,0,1,0-.272-.29A.281.281,0,0,0,31.426,44.108Z"/><path class="r" d="M35.231,44.253a.291.291,0,1,0-.272-.29A.281.281,0,0,0,35.231,44.253Z"/><path class="r" d="M32.853,47.807a.291.291,0,1,0-.272-.29A.281.281,0,0,0,32.853,47.807Z"/><path class="r" d="M35.775,47.372a.291.291,0,1,0-.272-.29A.281.281,0,0,0,35.775,47.372Z"/><path class="r" d="M29.184,46.066a.291.291,0,1,0-.272-.29A.281.281,0,0,0,29.184,46.066Z"/><path class="r" d="M26.2,48.46a.291.291,0,1,0-.272-.29A.281.281,0,0,0,26.2,48.46Z"/><path class="r" d="M31.563,50.128a.291.291,0,1,0-.272-.29A.281.281,0,0,0,31.563,50.128Z"/><path class="r" d="M27.351,51.724a.291.291,0,1,0-.272-.29A.281.281,0,0,0,27.351,51.724Z"/><path class="r" d="M29.049,48.9a.291.291,0,1,0-.272-.29A.281.281,0,0,0,29.049,48.9Z"/><path class="r" d="M25.788,44.471a.291.291,0,1,0-.272-.29A.281.281,0,0,0,25.788,44.471Z"/><path class="r" d="M22.12,44.471a.291.291,0,1,0-.272-.29A.281.281,0,0,0,22.12,44.471Z"/><path class="r" d="M23.138,46.864a.291.291,0,1,0-.272-.29A.281.281,0,0,0,23.138,46.864Z"/><path class="r" d="M21.168,48.17a.291.291,0,1,0-.272-.29A.281.281,0,0,0,21.168,48.17Z"/><path class="r" d="M17.907,44.978a.291.291,0,1,0-.272-.29A.281.281,0,0,0,17.907,44.978Z"/><path class="r" d="M19.538,43.02a.291.291,0,1,0-.272-.29A.281.281,0,0,0,19.538,43.02Z"/><path class="r" d="M23.885,42.077a.291.291,0,1,0-.272-.29A.281.281,0,0,0,23.885,42.077Z"/><path class="r" d="M20.693,38.3a.291.291,0,1,0-.272-.29A.281.281,0,0,0,20.693,38.3Z"/><path class="r" d="M21.712,40.626a.291.291,0,1,0-.272-.29A.281.281,0,0,0,21.712,40.626Z"/><path class="r" d="M18.043,39.683a.291.291,0,1,0-.272-.29A.281.281,0,0,0,18.043,39.683Z"/><path class="r" d="M17.024,42.367a.291.291,0,1,0-.272-.29A.281.281,0,0,0,17.024,42.367Z"/><path class="r" d="M19.266,36.274a.291.291,0,1,0-.272-.29A.281.281,0,0,0,19.266,36.274Z"/><path class="r" d="M15.19,37.434a.291.291,0,1,0-.272-.29A.281.281,0,0,0,15.19,37.434Z"/><path class="r" d="M15.325,39.756a.291.291,0,1,0-.272-.29A.281.281,0,0,0,15.325,39.756Z"/><path class="r" d="M17.364,38.014a.291.291,0,1,0-.272-.29A.281.281,0,0,0,17.364,38.014Z"/></svg>