<svg xmlns="http://www.w3.org/2000/svg" width="53" height="53" viewBox="0 0 53 53"><defs><style>.a{fill:#5497d3;}.b,.g,.k{fill:#fff;}.b{opacity:0.41;}.c{fill:#f7a872;}.d{fill:#f6c09c;}.e{fill:#e59661;}.f{fill:#1c1f28;}.h{fill:#0d353f;}.i{fill:#91333f;}.j{fill:#bc4b59;}.k{opacity:0.48;}.l{fill:#efd2a8;}.m{fill:#ffe3bb;}.n{fill:#efb82e;}.o{fill:#ffe94d;}.p{fill:#a07537;}</style></defs><path class="a" d="M53,26.5a26.4,26.4,0,0,1-5.771,16.513c-.209.261-.422.52-.644.773-.028.036-.061.071-.091.107A26.541,26.541,0,0,1,43.292,47c-.18.148-.36.294-.544.435a26.016,26.016,0,0,1-3.559,2.334c-.045.027-.089.05-.133.075l-.217.116c-.125.064-.251.132-.379.194-.174.089-.348.174-.524.259q-.865.416-1.765.767-.635.248-1.287.466-.222.073-.443.144c-.264.083-.528.162-.793.235a26.275,26.275,0,0,1-5.65.933c-.376.02-.749.034-1.13.038h0c-.018,0-.038,0-.057,0-.1,0-.2,0-.308,0h-.034c-.369,0-.733-.008-1.1-.024-.156-.006-.312-.014-.466-.023-.257-.016-.512-.034-.767-.057a26.189,26.189,0,0,1-6.016-1.251c-.326-.106-.648-.221-.965-.343a25.994,25.994,0,0,1-3.8-1.789q-.768-.435-1.5-.925a26.7,26.7,0,0,1-5.415-4.772Q5.68,42.936,5,41.991c-.006-.01-.014-.018-.02-.028A26.5,26.5,0,1,1,53,26.5Z"/><path class="b" d="M53,26.5a26.4,26.4,0,0,1-5.771,16.513c-.209.261-.422.52-.644.773-.028.036-.061.071-.091.107A26.541,26.541,0,0,1,43.292,47c-.18.148-.36.294-.544.435a26.016,26.016,0,0,1-3.559,2.334c-.045.027-.089.05-.133.075l-.217.116c-.125.064-.251.132-.379.194-.174.089-.348.174-.524.259q-.865.416-1.765.767-.635.248-1.287.466-.222.073-.443.144c-.264.083-.528.162-.793.235a26.275,26.275,0,0,1-5.65.933c-.376.02-.749.034-1.13.038h0c-.018,0-.038,0-.057,0-.1,0-.2,0-.308,0h-.034c-.369,0-.733-.008-1.1-.024-.156-.006-.312-.014-.466-.023-.257-.016-.512-.034-.767-.057a26.189,26.189,0,0,1-6.016-1.251c-.326-.106-.648-.221-.965-.343a25.994,25.994,0,0,1-3.8-1.789q-.768-.435-1.5-.925a26.7,26.7,0,0,1-5.415-4.772Q5.68,42.936,5,41.991c-.006-.01-.014-.018-.02-.028A26.5,26.5,0,1,1,53,26.5Z"/><path class="c" d="M30.622,36.268H21.582a7.556,7.556,0,0,0,0-5.432h9.041a8.276,8.276,0,0,0,0,5.432Z"/><path class="d" d="M34.493,24.15a1.3,1.3,0,1,0-1.261-1.3A1.281,1.281,0,0,0,34.493,24.15Z"/><path class="d" d="M18.4,24.15a1.3,1.3,0,1,0-1.261-1.3A1.281,1.281,0,0,0,18.4,24.15Z"/><path class="e" d="M35.027,21.159q-.064,1.315-.168,2.638-.018.229-.053.454s0,.01,0,.015A11,11,0,0,1,30.6,30.68a10.34,10.34,0,0,1-1.113.78,6.45,6.45,0,0,1-3.06,1.011A5.322,5.322,0,0,1,23.994,32a10.427,10.427,0,0,1-3.9-3.3A9.449,9.449,0,0,1,18.164,23.8c-.067-.886-.133-1.77-.2-2.657A7.575,7.575,0,0,1,25.6,13.211q.768.026,1.535.056C31.5,13.687,35.01,16.937,35.027,21.159Z"/><path class="c" d="M34.173,21.119q-.055,1.315-.143,2.638c-.01.153-.026.3-.045.455,0,0,0,.009,0,.015a11.252,11.252,0,0,1-3.6,6.41,8.868,8.868,0,0,1-.951.777,4.98,4.98,0,0,1-2.618,1,4.026,4.026,0,0,1-2.08-.478,9.315,9.315,0,0,1-3.324-3.288,10.414,10.414,0,0,1-1.635-4.887q-.085-1.33-.172-2.657c-.283-4.123,2.617-7.886,6.5-7.921l1.314.053A7.756,7.756,0,0,1,34.173,21.119Z"/><path class="f" d="M24.5,20.333a2.727,2.727,0,0,0-1.731,0,.515.515,0,0,1-.61-.2h0a.457.457,0,0,1,.34-.607,3.58,3.58,0,0,1,2.272,0,.457.457,0,0,1,.34.607h0a.515.515,0,0,1-.61.2Z"/><path class="f" d="M30,20.107a2.727,2.727,0,0,0-1.731,0,.515.515,0,0,1-.61-.2h0A.457.457,0,0,1,28,19.3a3.579,3.579,0,0,1,2.272,0,.457.457,0,0,1,.34.607h0a.515.515,0,0,1-.61.2Z"/><path class="g" d="M24.265,21.732v.475a.053.053,0,0,1-.018.04.053.053,0,0,1-.042.013c-.124-.018-.26-.033-.407-.043-.106-.007-.216-.011-.332-.011s-.229,0-.335.011c-.146.009-.282.025-.406.043a.053.053,0,0,1-.022,0,.053.053,0,0,1-.033-.029.053.053,0,0,1,0-.022v-.5a.8.8,0,0,1,.839-.8.815.815,0,0,1,.761.822Z"/><path class="h" d="M23.911,21.921a.444.444,0,0,1-.112.3c-.105-.007-.216-.011-.332-.011s-.229,0-.335.011a.44.44,0,0,1-.112-.3.446.446,0,0,1,.891,0Z"/><path class="g" d="M29.929,21.732v.475a.053.053,0,0,1-.018.04.053.053,0,0,1-.042.013c-.124-.018-.26-.033-.407-.043-.106-.007-.216-.011-.332-.011s-.229,0-.335.011c-.146.009-.282.025-.406.043a.053.053,0,0,1-.06-.053v-.5a.8.8,0,0,1,.839-.8.815.815,0,0,1,.761.822Z"/><path class="h" d="M29.575,21.921a.443.443,0,0,1-.112.3c-.106-.007-.216-.011-.332-.011s-.229,0-.335.011a.44.44,0,0,1-.112-.3.446.446,0,0,1,.891,0Z"/><path class="g" d="M23.551,21.945a.085.085,0,1,0-.085-.085A.085.085,0,0,0,23.551,21.945Z"/><path class="g" d="M29.058,21.973a.085.085,0,1,0-.085-.085A.085.085,0,0,0,29.058,21.973Z"/><path class="i" d="M28.665,26.645a1.86,1.86,0,0,1-.7.877,3.009,3.009,0,0,1-1.736.519,3.238,3.238,0,0,1-1.041-.168,2.129,2.129,0,0,1-1.413-1.285c-.026-.081.055-.158.167-.158h4.5C28.591,26.43,28.7,26.537,28.665,26.645Z"/><path class="j" d="M27.966,27.522a3.009,3.009,0,0,1-1.736.519,3.238,3.238,0,0,1-1.041-.168,1.438,1.438,0,0,1,1.472-.923,1.628,1.628,0,0,1,1.305.572Z"/><path class="f" d="M30.419,27.054a16.644,16.644,0,0,0-2.09-.386,16.991,16.991,0,0,0-1.889-.116,16.539,16.539,0,0,0-4.553.618v-.164c0-.818.473-1.481,1.057-1.481a16.718,16.718,0,0,1,6.731,0,1.266,1.266,0,0,1,.83.482,1.842,1.842,0,0,1,.29.681.309.309,0,0,1-.376.367Z"/><path class="k" d="M27.306,23.863c.041.333-.521.755-1.058.755s-1.1-.422-1.058-.755c.039-.314.609-.5,1.009-.513C26.653,23.336,27.266,23.537,27.306,23.863Z"/><path class="g" d="M28.329,26.667V26.7a.309.309,0,0,1-.31.309H24.444a.31.31,0,0,1-.31-.309v0a16.425,16.425,0,0,1,2.306-.151,16.98,16.98,0,0,1,1.889.116Z"/><path class="f" d="M18.141,22.943a11.255,11.255,0,0,0,1.841,4.737c1.7,2.444,4.157,3.752,4.858,3.3a2.356,2.356,0,0,1,.618-.465,1.347,1.347,0,0,1,1.1,0c.233.144.246.326.353.422.431.39,2.493-.513,4.24-2.2,3.389-3.271,3.66-7.623,3.8-7.593a12.057,12.057,0,0,1-3.21,8.539A7.9,7.9,0,0,1,26.7,32.667a7.8,7.8,0,0,1-5.961-2.453A9.769,9.769,0,0,1,18.141,22.943Z"/><path class="f" d="M21.4,15.819c.854-.026.968,1.015,2.226,1.474,1.85.676,4.185-.3,5.449-1.218.855-.618.9-1.042,1.4-1.065,1.6-.072,2.914,3.868,3.062,4.326a12.7,12.7,0,0,1,.561,4.9,24.469,24.469,0,0,0,1.029-2.912c.877-3.088,1.635-5.761.468-8a6.783,6.783,0,0,0-4.375-3.2,5.494,5.494,0,0,0-1.756-1.952,5.784,5.784,0,0,0-.623-.354c-1.42-.679-9.742-.566-12.132,4.859-1.672,3.8.371,8.359,1.31,10.455.106.236.2.428.26.554a11.37,11.37,0,0,1,1.2-5.874C19.9,17,20.5,15.847,21.4,15.819Z"/><path class="l" d="M46.586,43.784c-.029.036-.061.071-.091.107A26.535,26.535,0,0,1,43.292,47c-.18.148-.36.293-.544.435a25.975,25.975,0,0,1-3.559,2.334c-.045.026-.089.051-.133.075l-.217.116c-.125.064-.251.132-.379.194-.174.089-.348.174-.524.259q-.865.416-1.765.767-.635.249-1.287.466c-.148.049-.3.1-.443.144-.264.083-.528.162-.793.235a26.248,26.248,0,0,1-5.65.933c-.376.02-.749.034-1.13.039h0c-.018,0-.038,0-.057,0-.1,0-.2,0-.308,0h-.034c-.369,0-.733-.008-1.1-.024-.156-.006-.312-.015-.466-.023-.257-.016-.512-.034-.767-.057a26.19,26.19,0,0,1-6.016-1.251q-.489-.158-.965-.343a26.039,26.039,0,0,1-3.8-1.789q-.768-.435-1.5-.925a26.7,26.7,0,0,1-5.415-4.771Q5.68,42.935,5,41.99c-.006-.01-.014-.018-.02-.028a6.06,6.06,0,0,1,5.617-3.79,64.644,64.644,0,0,1,6.472-1.206c.429-.057.868-.111,1.314-.162q1.017-.116,2.087-.2c.069.046.14.093.211.138a.612.612,0,0,0,.065.042c.014.01.029.018.043.026.185.115.374.225.573.326a.44.44,0,0,0,.069.036c.1.051.192.1.29.144l.006,0c.1.046.194.089.29.129.03.014.059.026.089.039.1.042.2.081.3.12l.046.016q.152.058.31.109a.165.165,0,0,0,.03.01c.1.036.208.069.317.1l.093.028c.085.024.17.049.257.071.049.012.1.024.146.034.178.045.36.085.543.12a11.444,11.444,0,0,0,2.722.194c.113,0,.227-.008.343-.018s.231-.016.343-.028a11.64,11.64,0,0,0,3.97-1.113c.123-.061.247-.124.366-.19s.223-.121.33-.185q1.1.116,2.142.261c.16.022.318.045.475.069,2.084.3,3.976.686,5.652,1.089a6.147,6.147,0,0,1,3.825,1.36A6.045,6.045,0,0,1,46.42,43Z"/><path class="m" d="M32.219,36.754c-.107.063-.219.126-.33.185s-.243.13-.366.19a11.641,11.641,0,0,1-3.97,1.113c-.113.012-.229.02-.343.028s-.229.014-.343.018V53h0c-.018,0-.038,0-.057,0-.1,0-.2,0-.308,0h-.034c-.369,0-.733-.008-1.1-.024-.156-.006-.312-.015-.466-.023-.257-.016-.512-.034-.767-.057v-14.8h.008c-.182-.034-.365-.075-.543-.119-.048-.01-.1-.022-.146-.034-.087-.022-.172-.047-.257-.071l-.093-.028c-.107-.03-.213-.063-.316-.1a.164.164,0,0,1-.03-.01q-.158-.053-.31-.109l-.046-.016c-.1-.039-.2-.077-.3-.12-.03-.012-.059-.024-.089-.039-.1-.04-.194-.083-.29-.129l-.006,0c-.1-.046-.2-.093-.29-.144a.44.44,0,0,1-.069-.036c-.2-.1-.389-.211-.573-.326-.014-.008-.028-.016-.043-.026s-.044-.026-.065-.04v0c-.071-.045-.142-.091-.211-.138.085-.008.17-.014.255-.02l.119-.01.032,0q.4-1.236.808-2.476c.116.042.239.089.372.134a12.8,12.8,0,0,0,8.142.05c.16-.053.31-.106.447-.156.158.31.314.62.472.929.217.425.431.85.648,1.275.067.134.136.265.2.4C32.049,36.738,32.134,36.746,32.219,36.754Z"/><path class="n" d="M21.346,35.61q-.127.514-.255,1.043c-.018.079-.036.158-.056.237-.749,3.146-1.446,6.571-2.026,10.261-.247,1.561-.46,3.089-.64,4.573q-.489-.158-.965-.343a25.993,25.993,0,0,1-3.8-1.789q-.768-.435-1.5-.925a63.809,63.809,0,0,1,3.251-8.294,19.645,19.645,0,0,1,1.96-3.328,3.765,3.765,0,0,1,2.741-1.775.145.145,0,0,1,.03,0,2.515,2.515,0,0,1,1.1.261C21.247,35.555,21.3,35.584,21.346,35.61Z"/><path class="n" d="M39.189,49.768c-.045.026-.089.051-.133.075l-.217.116c-.125.064-.251.132-.379.194-.174.089-.348.174-.524.259q-.865.416-1.765.767-.635.249-1.287.466c-.148.049-.3.1-.443.144-.264.083-.528.162-.793.235q-.243-2.514-.585-5.178c-.445-3.47-.971-6.714-1.538-9.716q-.2-1.057-.407-2.075c0-.016-.006-.035-.01-.051a2.132,2.132,0,0,1,.593-.288,1.672,1.672,0,0,1,.46-.065,1.745,1.745,0,0,1,.907.277,5.7,5.7,0,0,1,1.769,2.156,25.287,25.287,0,0,1,1.284,2.806,79.554,79.554,0,0,1,3.071,9.878Z"/><path class="o" d="M38.46,50.153c-.174.089-.348.174-.524.259q-.865.416-1.765.767-.635.249-1.287.466c-.148.049-.3.1-.443.144q-.346-2.5-.771-5.144c-.561-3.474-1.164-6.715-1.779-9.707-.042-.2-.083-.407-.126-.609q-.149-.71-.3-1.4a1.6,1.6,0,0,1,.233-.211.943.943,0,0,1,.5-.192,1.185,1.185,0,0,1,.87.4,7.231,7.231,0,0,1,1.3,2.087c.346.749.684,1.619,1.016,2.542a108.141,108.141,0,0,1,3.083,10.6Z"/><path class="o" d="M21.265,35.618q-.146.516-.293,1.044c-.014.053-.028.106-.045.158v0c-.873,3.158-1.755,6.613-2.607,10.348q-.489,2.152-.917,4.21a25.993,25.993,0,0,1-3.8-1.789c1.006-3.172,2.2-6.6,3.5-9.6a27.163,27.163,0,0,1,1.528-3.107,4.168,4.168,0,0,1,1.427-1.613.886.886,0,0,1,.516-.1,1.041,1.041,0,0,1,.617.36C21.216,35.558,21.242,35.589,21.265,35.618Z"/><path class="p" d="M25.668,37.357a.685.685,0,1,0-.684-.685A.685.685,0,0,0,25.668,37.357Z"/><path class="p" d="M25.668,41.811a.685.685,0,1,0-.684-.685A.685.685,0,0,0,25.668,41.811Z"/><path class="p" d="M25.668,51.932a.685.685,0,1,0-.684-.685A.685.685,0,0,0,25.668,51.932Z"/></svg>