<svg xmlns="http://www.w3.org/2000/svg" width="19" height="19" viewBox="0 0 19 19"><defs><style>.a{isolation:isolate;}.b{fill:none;}.c{fill:rgba(0,0,0,0.82);}</style></defs><g class="a"><rect class="b" width="19" height="19"/><path class="c" d="M13.377,11.978H6.991a.8.8,0,1,1,0-1.6h6.386a.8.8,0,0,1,0,1.6Zm-6.386,1.6a.8.8,0,1,0,0,1.6h3.193a.8.8,0,1,0,0-1.6Zm9.578-2a.8.8,0,0,0-.8.8v5.587H4.6V4.395H8.587a.8.8,0,0,0,0-1.6H3.8a.8.8,0,0,0-.8.8V18.762a.8.8,0,0,0,.8.8H16.569a.8.8,0,0,0,.8-.8V12.377A.8.8,0,0,0,16.569,11.578Zm2.953-.239a.758.758,0,0,1-1.117,0L16.37,9.3h0a4.151,4.151,0,0,1-2.2.678,4.031,4.031,0,0,1-2.834-1.2H6.991a.8.8,0,0,1,0-1.6h3.392a3.951,3.951,0,0,1-.2-1.2,3.991,3.991,0,1,1,7.982,0,4.151,4.151,0,0,1-.639,2.2h-.04l2.035,2.035a.758.758,0,0,1,0,1.117ZM12.778,7.188a.359.359,0,0,1,.4-.4h1.6v-.4h-1.2a.8.8,0,0,1-.8-.8v-.4a.8.8,0,0,1,.8-.8h.2V3.636a2.395,2.395,0,0,0,0,4.709V7.587h-.6a.359.359,0,0,1-.4-.4Zm3.791-1.2a2.4,2.4,0,0,0-2-2.355v.758h.6a.359.359,0,0,1,.4.4.359.359,0,0,1-.4.4h-1.6v.4h1.2a.8.8,0,0,1,.8.8v.4a.8.8,0,0,1-.8.8h-.2v.758l.639-.2.239-.12a.04.04,0,0,1,.04-.04l.279-.2a.04.04,0,0,1,.04-.04l.239-.239h0l.2-.319h0l.08-.16A2.2,2.2,0,0,0,16.569,5.991Z" transform="translate(-1.803 -1.202)"/></g></svg>